<svg width="110" height="134" viewBox="0 0 110 134" fill="none" xmlns="http://www.w3.org/2000/svg">
<path d="M0.12 134V133.643H56.7257C61.6583 133.643 66.1154 132.039 70.0972 128.83C74.0789 125.561 77.2583 121.134 79.6354 115.547C82.0126 109.961 83.2012 103.632 83.2012 96.56C83.2012 89.488 82.0126 83.664 79.6354 79.088C77.2583 74.512 74.0789 71.1246 70.0972 68.9257C66.1154 66.6674 61.688 65.5383 56.8149 65.5383H36.4903V65.1817H60.7371C69.6514 65.1817 77.7634 66.2217 85.0731 68.3017C92.3829 70.3223 98.2069 73.7097 102.545 78.464C106.943 83.1589 109.142 89.5474 109.142 97.6297C109.142 110.704 104.863 120.034 96.3052 125.621C87.8069 131.207 75.9509 134 60.7371 134H0.12ZM16.0766 133.822V0.463993H39.5211V133.822H16.0766ZM36.4903 65.5383V65.1817H55.032C59.3703 65.1817 63.3817 64.1417 67.0663 62.0617C70.8103 59.9817 73.8411 56.7428 76.1589 52.3451C78.4766 47.888 79.6354 42.1234 79.6354 35.0514C79.6354 27.9794 78.4766 21.888 76.1589 16.7771C73.8411 11.6068 70.8103 7.62513 67.0663 4.83198C63.3817 2.03885 59.3703 0.642276 55.032 0.642276H0.12V0.285699H57.1714C71.4343 0.285699 82.7851 2.90056 91.224 8.13028C99.6629 13.3006 103.882 21.68 103.882 33.2686C103.882 44.6194 99.8709 52.8503 91.848 57.9611C83.8846 63.0126 72.3257 65.5383 57.1714 65.5383H36.4903Z" fill="#224993"/>
</svg>
